<?xml version="1.0" encoding="UTF-8" standalone="no"?>
<?xml-stylesheet href="../css/graphic.css" type="text/css"?>
<!--
   Copyright (c) 2018-2021
 
   SVG graphic cold for ah-choo
 
   Author Linus Kohl <linus@munichresearch.com>
 
   Created at     : 2018-10-10
   Last modified  : 2018-10-10
-->
<svg
   xmlns:dc="http://purl.org/dc/elements/1.1/"
   xmlns:cc="http://creativecommons.org/ns#"
   xmlns:rdf="http://www.w3.org/1999/02/22-rdf-syntax-ns#"
   xmlns:svg="http://www.w3.org/2000/svg"
   xmlns="http://www.w3.org/2000/svg"
   id="svg"
   version="1.1"
   preserveAspectRatio="xMinYMin meet" 
   viewBox="0 -40 197 18"
>
  
  <style
     id="inline_styles">
    /* <![CDATA[ */

     
    /* ]]> */
  </style>
  <defs
     id="defs2">
    <marker
       style="overflow:visible"
       id="marker3323"
       refX="0"
       refY="0"
       orient="auto">
      <path
         transform="matrix(-0.8,0,0,-0.8,-10,0)"
         style="fill:#000000;fill-opacity:1;fill-rule:evenodd;stroke:#000000;stroke-width:1.00000003pt;stroke-opacity:1"
         d="M 0,0 5,-5 -12.5,0 5,5 Z"
         id="path3321"
          />
    </marker>
    <marker
       style="overflow:visible"
       id="Arrow1Lend"
       refX="0"
       refY="0"
       orient="auto">
      <path
         transform="matrix(-0.8,0,0,-0.8,-10,0)"
         style="fill:#000000;fill-opacity:1;fill-rule:evenodd;stroke:#000000;stroke-width:1.00000003pt;stroke-opacity:1"
         d="M 0,0 5,-5 -12.5,0 5,5 Z"
         id="path2923"
          />
    </marker>
    <marker
       style="overflow:visible"
       id="Arrow1Lstart"
       refX="0"
       refY="0"
       orient="auto">
      <path
         transform="matrix(0.8,0,0,0.8,10,0)"
         style="fill:#000000;fill-opacity:1;fill-rule:evenodd;stroke:#000000;stroke-width:1.00000003pt;stroke-opacity:1"
         d="M 0,0 5,-5 -12.5,0 5,5 Z"
         id="path2920"
          />
    </marker>
    <filter
       height="3.3445449"
       y="-1.1722724"
       width="1.5904665"
       x="-0.29523328"
       id="filter3850"
       style="color-interpolation-filters:sRGB">
      <feGaussianBlur
         id="feGaussianBlur3852"
         stdDeviation="7.2847272" />
    </filter>
  </defs>
  <metadata
     id="metadata">
    <rdf:RDF>
      <cc:Work
         rdf:about="">
        <dc:format>image/svg+xml</dc:format>
        <dc:type
           rdf:resource="http://purl.org/dc/dcmitype/StillImage" />
        <dc:title>Cold graph</dc:title>
      </cc:Work>
    </rdf:RDF>
  </metadata>
  <g
     transform="translate(-5.1047483,-89.04062)"
     id="axes">
    <path
       id="x-axis"
       class="axis"
       d="M 6.1411437,146.07755 H 200.43351"
    />
    <path
       id="y-axis"
       class="axis"
       d="M 6.2844863,146.07755 V 70.291305"
    />
  </g>
  <g
     transform="translate(-5.1047483,-89.04062)"
     id="day_lines_container">
    <g
       transform="matrix(0.86319621,0,0,0.89311955,0.70994745,6.6796902)"
       id="day_lines">
      <path
         d="M 25.657874,71.424516 V 156.14896"
         id="day_line-1"
          />
      <path
         d="M 44.634011,71.290882 V 156.01533"
         id="day_line-1-6"
          />
      <path
         d="M 64.144687,71.285507 V 156.00996"
         id="day_line-1-6-7"
          />
      <path
         d="M 83.388093,71.290879 V 156.01533"
         id="day_line-1-6-5"
          />
      <path
         d="M 103.16604,71.023609 V 155.74806"
         id="day_line-1-6-3"
          />
      <path
         d="M 122.67672,71.301624 V 156.02606"
         id="day_line-1-6-56"
          />
      <path
         d="M 141.11831,71.285507 V 156.00996"
         id="day_line-1-6-2"
          />
      <path
         d="M 160.09445,71.296251 V 156.02069"
         id="day_line-1-6-9"
          />
      <path
         d="M 179.07059,71.563521 V 156.28797"
         id="day_line-1-6-1"
          />
      <path
         d="M 198.04672,71.290883 V 156.01532"
         id="day_line-1-6-27"
          />
    </g>
    <g
       id="period_labels" />
    <g
       transform="matrix(0.86319621,0,0,0.89311955,0.70994745,6.6796902)"
       class="period_label_container"
       id="period_label_container-0">
      <text
         transform="rotate(-90)"
         xml:space="preserve"
         x="-78.82885"
         y="18.022388"
         id="period_label-0"
         ><tspan
           id="tspan3470"
           x="-78.82885"
           y="18.022388">INFECTION</tspan></text>
    </g>
    <g
       class="period_label_container"
       id="period_label_container-1"
       transform="matrix(0.86319621,0,0,0.89311955,16.861306,6.7327374)">
      <text
         transform="rotate(-90)"
         xml:space="preserve"
         x="-78.82885"
         y="18.022388"
         id="period_label-0-9"
         ><tspan
           id="tspan3470-7"
           x="-78.82885"
           y="18.022388">DAY 2</tspan></text>
    </g>
    <g
       class="period_label_container"
       id="period_label_container-2"
       transform="matrix(0.86319621,0,0,0.89311955,34.10764,6.746126)">
      <text
         transform="rotate(-90)"
         xml:space="preserve"
         x="-78.82885"
         y="18.022388"
         id="period_label-0-6"
         ><tspan
           id="tspan3470-1"
           x="-78.82885"
           y="18.022388">DAY 3</tspan></text>
    </g>
    <g
       class="period_label_container"
       id="period_label_container-3"
       transform="matrix(0.86319621,0,0,0.89311955,50.258998,6.7991737)">
      <text
         transform="rotate(-90)"
         xml:space="preserve"
         x="-78.82885"
         y="18.022388"
         id="period_label-0-9-9"
         ><tspan
           id="tspan3470-7-3"
           x="-78.82885"
           y="18.022388">DAY 4</tspan></text>
    </g>
    <g
       class="period_label_container"
       id="period_label_container-4"
       transform="matrix(0.86319621,0,0,0.89311955,67.076665,6.8556489)">
      <text
         transform="rotate(-90)"
         xml:space="preserve"
         x="-78.82885"
         y="18.022388"
         id="period_label-0-94"
         ><tspan
           id="tspan3470-78"
           x="-78.82885"
           y="18.022388">DAY 5</tspan></text>
    </g>
    <g
       class="period_label_container"
       id="period_label_container-5"
       transform="matrix(0.86319621,0,0,0.89311955,83.228022,6.9086967)">
      <text
         transform="rotate(-90)"
         xml:space="preserve"
         x="-78.82885"
         y="18.022388"
         id="period_label-0-9-5"
         ><tspan
           id="tspan3470-7-0"
           x="-78.82885"
           y="18.022388">DAY 6</tspan></text>
    </g>
    <g
       class="period_label_container"
       id="g1563"
       transform="matrix(0.86319621,0,0,0.89311955,100.47436,6.9220836)">
      <text
         transform="rotate(-90)"
         xml:space="preserve"
         x="-78.82885"
         y="18.022388"
         id="period_label-0-6-6"
         ><tspan
           id="tspan3470-1-1"
           x="-78.82885"
           y="18.022388">DAY 7</tspan></text>
    </g>
    <g
       class="period_label_container"
       id="period_label_container-6"
       transform="matrix(0.86319621,0,0,0.89311955,116.62572,6.9751314)">
      <text
         transform="rotate(-90)"
         xml:space="preserve"
         x="-78.82885"
         y="18.022388"
         id="period_label-0-9-9-6"
         ><tspan
           id="tspan3470-7-3-3"
           x="-78.82885"
           y="18.022388">DAY 8</tspan></text>
    </g>
    <g
       class="period_label_container"
       id="period_label_container-7"
       transform="matrix(0.86319621,0,0,0.89311955,133.24519,7.0136186)">
      <text
         transform="rotate(-90)"
         xml:space="preserve"
         x="-78.82885"
         y="18.022388"
         id="period_label-0-6-6-0"
         ><tspan
           id="tspan3470-1-1-6"
           x="-78.82885"
           y="18.022388">DAY 9</tspan></text>
    </g>
    <g
       class="period_label_container"
       id="period_label_container-8"
       transform="matrix(0.86319621,0,0,0.89311955,149.39655,7.0666663)">
      <text
         transform="rotate(-90)"
         xml:space="preserve"
         x="-78.82885"
         y="18.022388"
         id="period_label-0-9-9-6-5"
         ><tspan
           id="tspan3470-7-3-3-5"
           x="-78.82885"
           y="18.022388">DAY 10</tspan></text>
    </g>
  </g>
  <g
     transform="translate(-5.1047483,-253.04069)"
     id="symptoms"
     >
    <g
       class="symptom"
       id="layer-rhinitis"
       transform="translate(0,164)">
      <path
         id="rhinitis"
         d="m 131.7351,145.96907 c -7.17537,-8.6465 -12.04731,-14.68531 -21.7037,-22.12366 C 101.03653,116.91665 83.521182,110.04029 77.032607,99.647532 70.754757,89.767658 67.723059,76.892036 60.774792,84.525179 41.974462,105.50156 34.717668,140.53843 33.154774,146.05963 Z"
      />
      <text
         class="symptom-description"
         xml:space="preserve"
         x="56.939533"
         y="107.87483"
         id="text1701"
         ><tspan
           id="tspan1699"
           x="56.939533"
           y="107.87483">Rhinitis</tspan></text>
    </g>
    <g
       id="layer-headache"
       class="symptom"
       transform="translate(0,164)">
      <path
         id="headache"
         d="M 114.51967,146.13898 C 101.50716,131.56546 89.041851,117.15213 69.657871,117.10727 57.336691,116.60343 39.82088,132.56769 36.147869,145.97019 Z"
      />
      <text
         xml:space="preserve"
         x="59.457123"
         y="131.32819"
         id="text-headache"
         class="symptom-description">
         <tspan
           
           x="59.457123"
           y="131.32819"
           id="tspan1569">Headache and</tspan><tspan
           
           x="59.457123"
           y="136.32819"
           id="tspan1573">aching limbs</tspan></text>
    </g>
    <g
       id="layer-sorethroat"
       class="symptom"
       transform="translate(0,164)">
      <path
         id="sorethroat"
         d="m 33.178523,145.931 c 5.709388,-21.7187 9.976167,-64.866257 17.34986,-64.130443 7.032642,7.197135 6.228125,42.588663 7.177887,64.139803 z"
      />
      <text
         xml:space="preserve"
         class="symptom-description"
         x="34.778675"
         y="142.8493"
         id="text1707">
         <tspan
           
           id="tspan1705"
           x="34.778675"
           y="142.8493">Sore throat</tspan></text>
    </g>
    <g
       id="layer-drycough"
       class="symptom"
      >
      <path
         id="drycough"
         d="m 120.14436,270.0568 c -2.94324,-3.06609 -6.62086,-7.52973 -8.43585,-6.29559 -12.889796,8.76468 -16.855587,28.78668 -24.456082,46.34281 h 68.030562 l -0.28922,-18.16997 c -6.03846,-1.90929 -9.26996,-4.10135 -11.87606,-5.25866 -4.1234,-1.83112 -7.37486,-3.58395 -22.97335,-16.61859 z"
         
      />
      <text
         xml:space="preserve"
         class="symptom-description"
         x="104.45582"
         y="279.23209"
         id="text1713"><tspan
           
           id="tspan1711"
           x="104.45582"
           y="279.23209">Dry cough</tspan></text>
    </g>
    <g
       id="layer-cough"
       class="symptom"
      >
      <path
         id="cough"
         d="m 156.17646,292.46557 c 9.35226,3.91106 19.53058,6.9674 31.48482,8.18627 v 9.45218 H 156.3396 Z"
      />
      <text
         xml:space="preserve"
         class="symptom-description"
         x="165.41049"
         y="306.75259"
         id="text1719"><tspan
           
           id="tspan1717"
           x="165.41049"
           y="306.75259">Cough</tspan></text>
    </g>
  </g>
  <g
     transform="translate(-5.1047483,-89.04062)"
     id="infection">
    <path
       d="m 18.449818,122.12142 c -0.01519,-0.0599 -0.21348,-0.76149 -0.215,-0.76299 -0.0015,-8.9e-4 -0.03115,6.4e-4 -0.06686,0.003 -0.211201,0.021 -0.718691,-0.003 -0.916976,-0.042 l -0.02204,-0.004 -0.120793,0.3253 c -0.0661,0.17837 -0.131432,0.35526 -0.145106,0.39198 -0.02431,0.0659 -0.02507,0.0666 -0.02583,0.0345 0,-0.0308 0.0266,-0.66405 0.03266,-0.75924 l 0.0022,-0.042 -0.09496,-0.0238 c -0.246908,-0.0622 -0.553832,-0.17538 -0.777191,-0.28556 l -0.0737,-0.036 -0.260583,0.32828 c -0.143585,0.18064 -0.261341,0.32829 -0.262101,0.32753 -7.64e-4,-6.5e-4 0.06155,-0.16788 0.139028,-0.371 0.07673,-0.20386 0.139028,-0.37175 0.13675,-0.37325 -0.0015,-8.9e-4 -0.116239,0.0563 -0.254506,0.12741 -0.138268,0.0721 -0.251467,0.12969 -0.251467,0.12742 0,-9e-4 0.0737,-0.0967 0.16334,-0.21061 l 0.163339,-0.20761 -0.01975,-0.0149 c -0.01139,-0.008 -0.06002,-0.0442 -0.108634,-0.0802 -0.124595,-0.0914 -0.238551,-0.18662 -0.359347,-0.29905 l -0.104838,-0.0974 -0.347188,0.23085 c -0.19145,0.12665 -0.350231,0.23235 -0.35403,0.23384 -0.0053,8.9e-4 0.357828,-0.4512 0.500654,-0.62509 l 0.02431,-0.03 -0.08282,-0.10112 c -0.04558,-0.0554 -0.104079,-0.13041 -0.129912,-0.16638 l -0.04635,-0.0645 -0.03874,0.0136 c -0.02128,0.006 -0.183851,0.0645 -0.361625,0.12591 -0.177773,0.0622 -0.338074,0.11841 -0.357067,0.1244 -0.03113,0.0115 -0.01747,-0.004 0.170936,-0.18436 0.417844,-0.40025 0.396573,-0.37851 0.384416,-0.39725 -0.006,-0.01 -0.02963,-0.0524 -0.05241,-0.0959 -0.0228,-0.0435 -0.04256,-0.0795 -0.0433,-0.0801 -7.65e-4,-8.9e-4 -0.184613,0.0495 -0.409487,0.11316 -0.224877,0.0638 -0.405688,0.11249 -0.40189,0.10948 0.003,-0.003 0.160301,-0.10643 0.34795,-0.22861 0.188408,-0.12291 0.344151,-0.22561 0.347949,-0.22785 0.003,-0.003 -0.0068,-0.0351 -0.02204,-0.0727 -0.09648,-0.23533 -0.181572,-0.5299 -0.224117,-0.77873 -0.0092,-0.0531 -0.01899,-0.0997 -0.02128,-0.10264 -0.0022,-0.002 -0.154979,-0.01 -0.338832,-0.0165 -0.183852,-0.006 -0.37378,-0.0143 -0.421642,-0.0173 -0.08737,-0.004 -0.08737,-0.004 -0.05318,-0.0143 0.01899,-0.005 0.201325,-0.0554 0.405687,-0.11097 0.204365,-0.0563 0.373022,-0.10264 0.37454,-0.10491 0.0015,-8.9e-4 0,-0.078 -0.0045,-0.17015 -0.0038,-0.0923 -0.006,-0.17763 -0.0053,-0.18963 l 7.66e-4,-0.0224 -0.147386,-0.0322 c -0.08054,-0.0173 -0.148145,-0.033 -0.149665,-0.0345 -0.0015,-9e-4 0.06534,-0.0172 0.148145,-0.0351 l 0.151943,-0.0322 0.0038,-0.0571 c 0.0083,-0.10339 0.02887,-0.29605 0.03798,-0.35526 0.0053,-0.0323 0.0075,-0.0599 0.0053,-0.0614 -0.0053,-0.003 -0.27046,-0.099 -0.597136,-0.21661 -0.170177,-0.0614 -0.192968,-0.0711 -0.16334,-0.0721 0.01899,0 0.186132,0.006 0.37226,0.015 0.186131,0.006 0.361626,0.0158 0.390494,0.0165 l 0.05242,0.002 0.03192,-0.11617 c 0.07294,-0.26682 0.170174,-0.52392 0.278815,-0.73677 0.02051,-0.0404 0.03571,-0.0757 0.03342,-0.0786 -0.0015,-0.003 -0.151942,-0.11992 -0.333515,-0.26009 -0.181572,-0.14015 -0.329716,-0.25557 -0.328957,-0.25632 7.65e-4,-8.9e-4 0.179293,0.0637 0.395813,0.14391 0.217278,0.0801 0.396571,0.14615 0.39885,0.14615 0.003,0 0.01216,-0.0136 0.02204,-0.03 0.02962,-0.0524 0.1603,-0.24059 0.224116,-0.32228 0.08509,-0.11017 0.201326,-0.24359 0.29629,-0.34252 l 0.0813,-0.0839 -0.235512,-0.34629 c -0.129912,-0.19036 -0.235513,-0.347 -0.234753,-0.34775 0.0015,-6.5e-4 0.151184,0.11536 0.332756,0.25858 l 0.329718,0.26006 0.0623,-0.0495 c 0.03494,-0.027 0.06305,-0.0531 0.06305,-0.0571 7.64e-4,-0.004 -0.05926,-0.14839 -0.13219,-0.32079 -0.07292,-0.17163 -0.132949,-0.31403 -0.132949,-0.31628 0,-0.002 0.114717,0.10047 0.255263,0.22936 l 0.254504,0.23309 0.0623,-0.0397 c 0.104078,-0.066 0.193728,-0.11842 0.303126,-0.17689 l 0.103316,-0.0554 -0.01443,-0.0502 c -0.0075,-0.0278 -0.06002,-0.20838 -0.116236,-0.40175 -0.05623,-0.19261 -0.09725,-0.34626 -0.09269,-0.34102 0.0053,0.005 0.111678,0.16264 0.235511,0.34853 l 0.226396,0.33877 0.09193,-0.0366 c 0.21272,-0.0847 0.515088,-0.17015 0.759716,-0.21361 l 0.119274,-0.0217 v -0.0263 c 0,-0.063 0.0304,-0.79673 0.03343,-0.79973 0.0015,-8.9e-4 0.0068,0.0136 0.01139,0.033 0.01596,0.0607 0.213479,0.7615 0.214999,0.763 0.0015,6.4e-4 0.03798,-6.6e-4 0.08205,-0.004 0.04406,-0.003 0.114718,-0.005 0.157262,-0.005 l 0.07749,-6.6e-4 0.0075,-0.0278 c 0.0039,-0.0158 0.02736,-0.11692 0.05166,-0.22485 0.02431,-0.10794 0.04635,-0.19412 0.04863,-0.19112 0.0022,0.003 0.02431,0.10265 0.04939,0.22184 0.05091,0.24435 0.04255,0.22935 0.121556,0.22935 0.05014,0 0.228672,0.018 0.332753,0.0345 0.04104,0.005 0.07598,0.01 0.07749,0.01 0.0015,-8.9e-4 0.06534,-0.17313 0.142067,-0.38076 0.07672,-0.20836 0.142066,-0.38374 0.145104,-0.38974 0.0053,-0.0136 0,0.1544 -0.01747,0.53892 l -0.01216,0.27954 0.01747,0.006 c 0.0099,0.003 0.05242,0.015 0.09497,0.0263 0.227154,0.0563 0.527243,0.16641 0.743761,0.27358 l 0.08889,0.0435 0.260583,-0.32829 c 0.143586,-0.18064 0.26134,-0.3283 0.262101,-0.32754 7.65e-4,6.5e-4 -0.06457,0.17689 -0.145865,0.3905 -0.0813,0.21436 -0.148145,0.39048 -0.148145,0.39125 0,6.4e-4 0.01293,0.01 0.02887,0.0179 0.04786,0.0285 0.231711,0.1499 0.261341,0.17313 l 0.02887,0.0224 0.295531,-0.25557 c 0.162578,-0.14091 0.297807,-0.25558 0.300087,-0.25558 0.003,0 0.0015,0.005 -0.003,0.0135 -0.0045,0.006 -0.07977,0.1694 -0.167137,0.36127 l -0.158021,0.34853 0.05773,0.0523 c 0.03191,0.0285 0.07824,0.0711 0.103316,0.0953 l 0.04482,0.0428 0.349471,-0.23159 c 0.192208,-0.12817 0.350228,-0.2316 0.350987,-0.23085 7.65e-4,8.9e-4 -0.116236,0.14765 -0.259062,0.32453 -0.143588,0.17763 -0.261343,0.32454 -0.261343,0.32829 0,0.003 0.02051,0.03 0.04634,0.0599 0.161819,0.18813 0.369221,0.49692 0.474062,0.70303 l 0.03341,0.0659 0.05166,-0.015 c 0.02888,-0.006 0.211202,-0.0593 0.40645,-0.11386 0.195245,-0.0554 0.354027,-0.0981 0.351748,-0.0959 -0.0015,0.002 -0.158782,0.10566 -0.34871,0.22935 -0.189928,0.12366 -0.34643,0.22858 -0.34643,0.23309 0,0.004 0.01059,0.0329 0.02356,0.0638 0.08889,0.21062 0.176254,0.51191 0.224117,0.77276 l 0.02204,0.11842 h 0.0266 c 0.06382,0 0.807579,0.03 0.810618,0.0329 0.0015,9e-4 -0.01367,0.006 -0.03343,0.0115 -0.06155,0.0158 -0.771871,0.2106 -0.773389,0.21211 -7.64e-4,8.9e-4 7.64e-4,0.036 0.0045,0.0773 0.003,0.0413 0.006,0.10415 0.0068,0.14014 v 0.0653 l 0.02887,0.006 c 0.01519,0.003 0.101044,0.0224 0.190689,0.0413 0.08964,0.0195 0.164098,0.0351 0.164857,0.0366 7.65e-4,6.6e-4 -0.08432,0.0195 -0.189928,0.042 l -0.191448,0.0413 -0.0099,0.13491 c -0.0085,0.12441 -0.03114,0.32678 -0.0433,0.38374 -0.0045,0.0232 -0.0039,0.0238 0.04026,0.0388 0.02431,0.007 0.202844,0.0726 0.397331,0.14315 l 0.353268,0.12892 -0.136748,-0.004 c -0.07521,-0.002 -0.26438,-0.0108 -0.420883,-0.0173 -0.282614,-0.0121 -0.284133,-0.0121 -0.289451,0.003 -0.0039,0.008 -0.01899,0.0614 -0.03418,0.11843 -0.06761,0.25108 -0.1603,0.49318 -0.274255,0.71878 l -0.04026,0.0801 0.332758,0.25707 c 0.18309,0.14165 0.332753,0.25782 0.331995,0.25858 -7.64e-4,8.9e-4 -0.179293,-0.0637 -0.395811,-0.14392 -0.21728,-0.0802 -0.395053,-0.14614 -0.395813,-0.14614 -0.0015,0 -0.0099,0.0128 -0.01899,0.0285 -0.0098,0.015 -0.04256,0.0659 -0.07445,0.11317 -0.05091,0.0764 -0.05546,0.0863 -0.04635,0.10048 0.0053,0.01 0.106362,0.1469 0.225635,0.30728 0.118516,0.16041 0.214998,0.29306 0.21348,0.29382 -0.0015,6.5e-4 -0.147385,-0.0788 -0.325158,-0.17763 l -0.32288,-0.17989 -0.04937,0.0547 c -0.02736,0.03 -0.08889,0.0967 -0.138269,0.1484 l -0.08812,0.0938 0.224115,0.33057 c 0.123834,0.18135 0.230195,0.33577 0.236272,0.34326 0.006,0.006 0.0099,0.0143 0.0085,0.0158 -0.0015,6.6e-4 -0.149664,-0.11316 -0.329718,-0.25482 -0.179291,-0.14166 -0.330473,-0.25783 -0.335792,-0.25783 -0.0045,0 -0.01139,0.003 -0.01443,0.007 -0.0085,0.0135 -0.189928,0.15441 -0.281855,0.21813 -0.04711,0.033 -0.08812,0.063 -0.0904,0.0666 -0.003,0.005 0.13675,0.18888 0.342633,0.44896 l 0.03798,0.0481 -0.06458,-0.0345 c -0.189169,-0.10047 -0.575866,-0.29831 -0.583461,-0.29831 -0.0045,0 -0.04711,0.0202 -0.09497,0.045 l -0.08737,0.0456 0.01444,0.0503 c 0.0075,0.0278 0.06002,0.20834 0.116236,0.40098 0.05546,0.19338 0.09876,0.3485 0.09572,0.34476 -0.0039,-0.003 -0.107884,-0.15739 -0.232471,-0.34326 -0.123834,-0.18513 -0.226396,-0.3388 -0.227916,-0.34029 -0.0015,-8.9e-4 -0.05319,0.0158 -0.114718,0.0391 -0.2659,0.099 -0.50293,0.16413 -0.759714,0.20836 l -0.101043,0.0179 v 0.0263 c 0,0.063 -0.03039,0.79672 -0.03342,0.79972 -0.0015,9e-4 -0.0068,-0.0135 -0.01139,-0.0329 z"
       id="bacteria1"
       class="bacteria"
       
       />
    <path
       d="m 14.841895,136.81623 c -0.02059,-0.0823 -0.289285,-1.04482 -0.291343,-1.04688 -0.0021,-0.002 -0.04221,8.9e-4 -0.0906,0.004 -0.286196,0.0288 -0.973889,-0.004 -1.242584,-0.0576 l -0.02986,-0.006 -0.163686,0.44632 c -0.08957,0.24474 -0.178103,0.48743 -0.196632,0.53782 -0.03294,0.0905 -0.03398,0.0915 -0.035,0.0473 0,-0.0422 0.03604,-0.91113 0.04427,-1.04173 l 0.0031,-0.0576 -0.128683,-0.0329 c -0.334582,-0.0854 -0.750492,-0.24064 -1.053162,-0.39181 l -0.09987,-0.0494 -0.353112,0.45043 c -0.194571,0.24784 -0.354142,0.45043 -0.355171,0.44939 -0.001,-8.9e-4 0.08339,-0.23035 0.188394,-0.50904 0.103981,-0.27972 0.188396,-0.51006 0.185308,-0.51213 -0.0021,-0.002 -0.157512,0.0772 -0.344878,0.17482 -0.187365,0.0987 -0.340758,0.17792 -0.340758,0.17482 0,-0.002 0.09987,-0.13273 0.22134,-0.28896 l 0.221338,-0.28486 -0.02677,-0.0204 c -0.01543,-0.0112 -0.08133,-0.0606 -0.14721,-0.11003 -0.168836,-0.12542 -0.323258,-0.25606 -0.486946,-0.41032 l -0.142066,-0.13368 -0.4704724,0.31674 c -0.2594302,0.17379 -0.4745916,0.31879 -0.4797397,0.32084 -0.00716,0.002 0.4848869,-0.61908 0.6784293,-0.85766 l 0.03294,-0.0411 -0.1122198,-0.13876 c -0.06177,-0.076 -0.1410351,-0.17894 -0.176042,-0.2283 l -0.062798,-0.0884 -0.0525,0.0186 c -0.028831,0.01 -0.249136,0.0884 -0.4900342,0.17276 -0.240899,0.0854 -0.4581206,0.16248 -0.4838577,0.1707 -0.042193,0.0159 -0.023669,-0.006 0.2316335,-0.25297 0.5662164,-0.54916 0.5373915,-0.51933 0.5209182,-0.54503 -0.0082,-0.0127 -0.040147,-0.0719 -0.071024,-0.13162 -0.030894,-0.0597 -0.057662,-0.10908 -0.058671,-0.11002 -0.00104,-0.002 -0.2501655,0.068 -0.554891,0.15527 -0.3047281,0.0875 -0.5497447,0.15433 -0.5445974,0.15019 0.00406,-0.004 0.2172216,-0.14606 0.4715036,-0.31366 0.255311,-0.16864 0.4663556,-0.30954 0.4715028,-0.31261 0.00406,-0.004 -0.00927,-0.0482 -0.029858,-0.0997 -0.1307475,-0.32291 -0.246048,-0.72707 -0.3036983,-1.06848 -0.012413,-0.0731 -0.025732,-0.13686 -0.028831,-0.14083 -0.00311,-0.004 -0.210013,-0.0127 -0.4591487,-0.0227 -0.2491348,-0.01 -0.5065054,-0.0196 -0.5713625,-0.0237 -0.118396,-0.006 -0.118396,-0.006 -0.072068,-0.0196 0.025732,-0.008 0.2728132,-0.076 0.5497429,-0.15226 0.2769324,-0.0772 0.5054782,-0.14083 0.5075352,-0.144 0.00207,-0.002 0,-0.10701 -0.00613,-0.23344 -0.00509,-0.12654 -0.0082,-0.24372 -0.00716,-0.26018 l 0.00104,-0.0308 -0.1997194,-0.0443 c -0.1091253,-0.0237 -0.2007501,-0.0453 -0.2028088,-0.0473 -0.00207,-0.002 0.088535,-0.0237 0.2007492,-0.0482 l 0.2058965,-0.0443 0.00509,-0.0781 c 0.01136,-0.14194 0.03912,-0.40621 0.051464,-0.48745 0.00716,-0.0443 0.010315,-0.0823 0.00716,-0.0843 -0.00716,-0.004 -0.3664967,-0.13575 -0.8091731,-0.29721 -0.2306045,-0.0843 -0.261488,-0.0976 -0.2213399,-0.0988 0.025732,0 0.2522251,0.01 0.5044467,0.0206 0.2522242,0.01 0.4900348,0.0216 0.529154,0.0227 l 0.071041,0.004 0.043246,-0.1594 c 0.098838,-0.36609 0.2306028,-0.71883 0.3778209,-1.01089 0.027795,-0.0555 0.048391,-0.10384 0.045292,-0.10796 -0.00207,-0.004 -0.2058964,-0.16453 -0.4519427,-0.35686 -0.2460463,-0.19229 -0.4467964,-0.35066 -0.4457658,-0.35168 0.00104,-0.002 0.2429569,0.0874 0.5363599,0.19744 0.2944319,0.11003 0.5373909,0.20053 0.5404785,0.20053 0.00406,0 0.016478,-0.0186 0.029858,-0.0411 0.040147,-0.0719 0.2172198,-0.3301 0.3036966,-0.4422 0.1153005,-0.15115 0.2728136,-0.33421 0.4014976,-0.46996 l 0.110158,-0.1151 -0.3191404,-0.47512 c -0.176042,-0.26119 -0.3191384,-0.47613 -0.3181094,-0.47715 0.00207,-8.9e-4 0.2048675,0.15829 0.4509138,0.35479 l 0.446795,0.35683 0.08442,-0.068 c 0.04735,-0.037 0.08544,-0.0731 0.08544,-0.0781 10e-4,-0.006 -0.0803,-0.20361 -0.17913,-0.44014 -0.09882,-0.23551 -0.180159,-0.43088 -0.180159,-0.43397 0,-0.004 0.155453,0.13781 0.345906,0.31469 l 0.344876,0.31982 0.08442,-0.0545 c 0.141035,-0.0905 0.262519,-0.16248 0.410764,-0.24269 l 0.140002,-0.076 -0.01956,-0.0689 c -0.01032,-0.0381 -0.08133,-0.2859 -0.157509,-0.55121 -0.07619,-0.26429 -0.131779,-0.4751 -0.125603,-0.46791 0.0072,0.008 0.151334,0.22315 0.319139,0.47819 l 0.306786,0.46482 0.124572,-0.0504 c 0.288255,-0.11622 0.69799,-0.23345 1.029483,-0.29308 l 0.161628,-0.0298 v -0.036 c 0,-0.0864 0.04118,-1.09316 0.04531,-1.09727 0.0021,-0.002 0.0093,0.0186 0.01543,0.0453 0.02162,0.0833 0.289284,1.04482 0.291345,1.04688 0.0021,8.9e-4 0.05146,-8.9e-4 0.111189,-0.006 0.05971,-0.004 0.155453,-0.008 0.213103,-0.008 l 0.104998,-8.9e-4 0.01032,-0.0381 c 0.0053,-0.0216 0.03707,-0.16044 0.07,-0.30853 0.03294,-0.14812 0.0628,-0.26634 0.0659,-0.26222 0.0031,0.004 0.03294,0.14083 0.06693,0.30439 0.06898,0.33525 0.05764,0.31469 0.164717,0.31469 0.06794,0 0.309872,0.0246 0.450912,0.0473 0.0556,0.008 0.10295,0.0127 0.104998,0.0127 0.0021,-0.002 0.08854,-0.23754 0.192513,-0.52241 0.103966,-0.28588 0.192511,-0.52652 0.19663,-0.53474 0.0072,-0.0186 0,0.21184 -0.02367,0.7394 l -0.01648,0.38357 0.02367,0.01 c 0.01346,0.004 0.07104,0.0206 0.128684,0.036 0.307815,0.0772 0.714461,0.22831 1.007862,0.37536 l 0.120445,0.0597 0.353113,-0.45043 c 0.194571,-0.24784 0.354141,-0.45043 0.35517,-0.44939 0.001,8.9e-4 -0.0875,0.24269 -0.197659,0.53578 -0.110158,0.29412 -0.200751,0.53578 -0.200751,0.53681 0,8.9e-4 0.01751,0.0127 0.03912,0.0247 0.06486,0.039 0.313991,0.20568 0.354142,0.23755 l 0.03912,0.0308 0.400471,-0.35068 c 0.220308,-0.19333 0.403555,-0.35067 0.406644,-0.35067 0.0041,0 0.0021,0.008 -0.0041,0.0186 -0.0061,0.01 -0.108093,0.23241 -0.226486,0.49569 l -0.214131,0.47817 0.07823,0.0719 c 0.04323,0.039 0.10603,0.0976 0.140003,0.13066 l 0.06073,0.0586 0.473564,-0.31776 c 0.260459,-0.17585 0.474591,-0.31776 0.47562,-0.31674 10e-4,0.002 -0.157511,0.20259 -0.351053,0.44528 -0.194573,0.24373 -0.354143,0.44529 -0.354143,0.45043 0,0.004 0.0278,0.0411 0.0628,0.0823 0.21928,0.25813 0.500329,0.68181 0.642398,0.96462 l 0.04529,0.0905 0.07,-0.0206 c 0.03913,-0.01 0.286198,-0.0813 0.550777,-0.15622 0.264575,-0.076 0.479738,-0.13464 0.476651,-0.13162 -0.0021,0.004 -0.215163,0.14495 -0.472535,0.31468 -0.257369,0.16969 -0.469445,0.31364 -0.469445,0.31982 0,0.006 0.01436,0.0453 0.03191,0.0875 0.120444,0.28898 0.23884,0.70239 0.303698,1.06027 l 0.02986,0.16248 h 0.03604 c 0.08647,0 1.094341,0.0411 1.098461,0.0453 0.0021,0.002 -0.01852,0.01 -0.04531,0.0159 -0.08339,0.0216 -1.045955,0.28896 -1.048012,0.29102 -0.001,0.002 0.001,0.0494 0.0061,0.1059 0.0041,0.0565 0.0082,0.14289 0.0093,0.1923 v 0.0895 l 0.03912,0.01 c 0.02059,0.004 0.136923,0.0308 0.258401,0.0565 0.121476,0.0267 0.222368,0.0482 0.223397,0.0503 0.001,8.9e-4 -0.114269,0.0267 -0.25737,0.0576 l -0.259429,0.0565 -0.01346,0.18511 c -0.01137,0.1707 -0.04221,0.44836 -0.05867,0.52652 -0.0061,0.0319 -0.0053,0.0329 0.05456,0.0535 0.03294,0.0111 0.274872,0.0997 0.538419,0.19642 l 0.47871,0.17688 -0.185305,-0.006 c -0.101919,-0.004 -0.358261,-0.0143 -0.570335,-0.0237 -0.382967,-0.0165 -0.385026,-0.0165 -0.392233,0.004 -0.0053,0.0112 -0.02573,0.0843 -0.04632,0.16248 -0.09163,0.34451 -0.217221,0.67668 -0.371643,0.98621 l -0.05456,0.11003 0.450915,0.35272 c 0.248104,0.19436 0.450911,0.35377 0.449883,0.3548 -0.001,0.002 -0.242958,-0.0874 -0.536359,-0.19745 -0.294434,-0.11004 -0.535333,-0.20053 -0.536362,-0.20053 -0.0021,0 -0.01346,0.0175 -0.02573,0.039 -0.01331,0.0206 -0.05766,0.0905 -0.100886,0.15528 -0.06898,0.10494 -0.07515,0.11827 -0.06281,0.13781 0.0072,0.0127 0.144129,0.20156 0.305755,0.42162 0.1606,0.22007 0.291344,0.4021 0.289284,0.40314 -0.0021,8.9e-4 -0.199719,-0.10797 -0.440618,-0.24373 l -0.437531,-0.24681 -0.06692,0.0751 c -0.03706,0.0412 -0.120444,0.13274 -0.187366,0.20362 l -0.119413,0.1286 0.303698,0.45352 c 0.167804,0.24885 0.311933,0.4607 0.320167,0.47099 0.0082,0.01 0.01346,0.0196 0.01137,0.0216 -0.0021,8.9e-4 -0.202808,-0.15527 -0.446797,-0.34964 -0.242957,-0.19436 -0.447823,-0.35376 -0.45503,-0.35376 -0.0061,0 -0.01543,0.004 -0.01956,0.0111 -0.01137,0.0186 -0.25737,0.21185 -0.381939,0.29927 -0.06383,0.0453 -0.119413,0.0864 -0.122508,0.0915 -0.0041,0.008 0.185307,0.25914 0.464297,0.61599 l 0.05146,0.0659 -0.0875,-0.0473 c -0.256342,-0.13781 -0.780351,-0.40929 -0.790642,-0.40929 -0.0061,0 -0.06383,0.0278 -0.128684,0.0617 l -0.118396,0.0627 0.01957,0.069 c 0.01031,0.0381 0.08133,0.28588 0.157511,0.55018 0.07515,0.26532 0.133827,0.47818 0.129715,0.47304 -0.0053,-0.004 -0.146193,-0.21596 -0.315022,-0.47099 -0.167805,-0.254 -0.306786,-0.46483 -0.308845,-0.46688 -0.0021,-0.002 -0.07208,0.0216 -0.155453,0.0535 -0.360319,0.13575 -0.681516,0.22521 -1.029481,0.28588 l -0.136923,0.0247 v 0.0361 c 0,0.0864 -0.04118,1.09315 -0.04529,1.09727 -0.0021,0.002 -0.0093,-0.0186 -0.01544,-0.0453 z"
       id="bacteria"
       class="bacteria"
       
       />
  </g>
  <path
     d="M 10,-10 V 56.594069"
     id="indicator"
  />
</svg>
